<svg width="40" height="49" viewBox="0 0 40 49" fill="none" xmlns="http://www.w3.org/2000/svg">
<g clip-path="url(#clip0_25_7)">
<rect width="36" height="36" transform="translate(4)" fill="white"/>
<path d="M22 36C31.9411 36 40 27.9411 40 18C40 8.05887 31.9411 0 22 0C12.0589 0 4 8.05887 4 18C4 27.9411 12.0589 36 22 36Z" fill="url(#paint0_linear_25_7)"/>
<path d="M29.565 11.295C27.449 11.295 25.37 12.617 23.766 14.007C24.1674 14.4453 24.5501 14.9004 24.913 15.371C25.085 15.598 25.336 15.905 25.646 16.253C26.882 15.169 28.335 14.209 29.565 14.209C31.655 14.209 33.355 15.909 33.355 17.999C33.355 20.089 31.655 21.789 29.565 21.789C27.228 21.789 24.081 18.333 23.163 17.121C22.713 16.525 18.642 11.295 14.434 11.295C10.737 11.295 7.729 14.303 7.729 18C7.729 21.697 10.737 24.704 14.434 24.704C16.489 24.704 18.507 23.456 20.091 22.11C19.65 21.6353 19.2313 21.1404 18.836 20.627C18.6365 20.3678 18.4283 20.1153 18.212 19.87C17.008 20.902 15.618 21.789 14.434 21.789C12.344 21.789 10.644 20.089 10.644 17.999C10.644 15.909 12.344 14.209 14.434 14.209C16.772 14.209 19.918 17.665 20.836 18.877C21.286 19.473 25.357 24.703 29.565 24.703C31.3424 24.7011 33.0466 23.9942 34.3034 22.7374C35.5602 21.4806 36.2672 19.7764 36.269 17.999C36.2674 16.2215 35.5606 14.5172 34.3037 13.2603C33.0468 12.0034 31.3425 11.2966 29.565 11.295Z" fill="white"/>
</g>
<path d="M2.75 35.9258C2.74773 36.0652 2.78787 36.2019 2.86509 36.318C2.94232 36.434 3.053 36.5238 3.18244 36.5755L9.78312 39.2162L12.4238 45.8176C12.4748 45.9452 12.5629 46.0547 12.6768 46.1318C12.7907 46.2089 12.925 46.25 13.0625 46.25H13.0735C13.2127 46.2478 13.348 46.2034 13.4615 46.1226C13.5749 46.0418 13.6611 45.9285 13.7088 45.7976L19.2088 30.6726C19.2538 30.5496 19.2627 30.4162 19.2345 30.2883C19.2062 30.1603 19.1421 30.0431 19.0494 29.9504C18.9568 29.8578 18.8397 29.7935 18.7117 29.7651C18.5838 29.7368 18.4505 29.7456 18.3274 29.7906L3.20237 35.2906C3.07145 35.3383 2.9581 35.4247 2.87733 35.5382C2.79655 35.6518 2.75215 35.7872 2.75 35.9265V35.9258Z" fill="url(#paint1_linear_25_7)"/>
<defs>
<linearGradient id="paint0_linear_25_7" x1="22" y1="0" x2="22" y2="36" gradientUnits="userSpaceOnUse">
<stop stop-color="#0E21A0"/>
<stop offset="0.755208" stop-color="#4D2DB7"/>
</linearGradient>
<linearGradient id="paint1_linear_25_7" x1="11.0003" y1="29.7489" x2="11.0003" y2="46.25" gradientUnits="userSpaceOnUse">
<stop offset="0.0104167" stop-color="white"/>
<stop offset="0.416667" stop-color="#4D2DB7"/>
<stop offset="1" stop-color="#3645AB"/>
</linearGradient>
<clipPath id="clip0_25_7">
<rect width="36" height="36" fill="white" transform="translate(4)"/>
</clipPath>
</defs>
</svg>
