<svg width="39" height="48" viewBox="0 0 39 48" fill="none" xmlns="http://www.w3.org/2000/svg">
<g clip-path="url(#clip0_25_21)">
<path d="M21 36C30.9411 36 39 27.9411 39 18C39 8.05887 30.9411 0 21 0C11.0589 0 3 8.05887 3 18C3 27.9411 11.0589 36 21 36Z" fill="white"/>
<path d="M28.565 11.295C26.449 11.295 24.37 12.617 22.766 14.007C23.1674 14.4453 23.5501 14.9004 23.913 15.371C24.085 15.598 24.336 15.905 24.646 16.253C25.882 15.169 27.335 14.209 28.565 14.209C30.655 14.209 32.355 15.909 32.355 17.999C32.355 20.089 30.655 21.789 28.565 21.789C26.228 21.789 23.081 18.333 22.163 17.121C21.713 16.525 17.642 11.295 13.434 11.295C9.737 11.295 6.729 14.303 6.729 18C6.729 21.697 9.737 24.704 13.434 24.704C15.489 24.704 17.507 23.456 19.091 22.11C18.65 21.6353 18.2313 21.1404 17.836 20.627C17.6365 20.3678 17.4283 20.1153 17.212 19.87C16.008 20.902 14.618 21.789 13.434 21.789C11.344 21.789 9.644 20.089 9.644 17.999C9.644 15.909 11.344 14.209 13.434 14.209C15.772 14.209 18.918 17.665 19.836 18.877C20.286 19.473 24.357 24.703 28.565 24.703C30.3424 24.7011 32.0466 23.9942 33.3034 22.7374C34.5602 21.4806 35.2672 19.7764 35.269 17.999C35.2674 16.2215 34.5606 14.5172 33.3037 13.2603C32.0468 12.0034 30.3425 11.2966 28.565 11.295Z" fill="url(#paint0_linear_25_21)"/>
<circle cx="21" cy="18" r="17.25" stroke="url(#paint1_linear_25_21)" stroke-width="1.5"/>
</g>
<path d="M2.75 34.9258C2.74773 35.0652 2.78787 35.2019 2.86509 35.318C2.94232 35.434 3.053 35.5238 3.18244 35.5755L9.78312 38.2162L12.4238 44.8176C12.4748 44.9452 12.5629 45.0547 12.6768 45.1318C12.7907 45.2089 12.925 45.25 13.0625 45.25H13.0735C13.2127 45.2478 13.348 45.2034 13.4615 45.1226C13.5749 45.0418 13.6611 44.9285 13.7088 44.7976L19.2088 29.6726C19.2538 29.5496 19.2627 29.4162 19.2345 29.2883C19.2062 29.1603 19.1421 29.0431 19.0494 28.9504C18.9568 28.8577 18.8397 28.7935 18.7117 28.7651C18.5838 28.7368 18.4505 28.7456 18.3274 28.7906L3.20237 34.2906C3.07145 34.3383 2.9581 34.4246 2.87733 34.5382C2.79655 34.6518 2.75215 34.7872 2.75 34.9265V34.9258Z" fill="url(#paint2_linear_25_21)"/>
<path d="M18.5 29L3 34.5H2.5V35L3 35.5L10 38L12.5 45H13H13.5L19 29.5V29H18.5Z" stroke="white"/>
<defs>
<linearGradient id="paint0_linear_25_21" x1="20.999" y1="11.295" x2="20.999" y2="24.704" gradientUnits="userSpaceOnUse">
<stop stop-color="#0E21A0"/>
<stop offset="0.755208" stop-color="#4D2DB7"/>
</linearGradient>
<linearGradient id="paint1_linear_25_21" x1="21" y1="0" x2="21" y2="36" gradientUnits="userSpaceOnUse">
<stop stop-color="#0E21A0"/>
<stop offset="0.755208" stop-color="#4D2DB7"/>
</linearGradient>
<linearGradient id="paint2_linear_25_21" x1="11.0003" y1="28.7489" x2="11.0003" y2="45.25" gradientUnits="userSpaceOnUse">
<stop offset="0.0104167" stop-color="white"/>
<stop offset="0.0105167" stop-color="#3645AB"/>
<stop offset="0.578125" stop-color="#4D2DB7"/>
</linearGradient>
<clipPath id="clip0_25_21">
<rect width="36" height="36" fill="white" transform="translate(3)"/>
</clipPath>
</defs>
</svg>
